<svg width="429" height="746" viewBox="0 0 429 746" fill="none" xmlns="http://www.w3.org/2000/svg">
<g style="mix-blend-mode:luminosity" opacity="0.11">
<path opacity="0.361345" fill-rule="evenodd" clip-rule="evenodd" d="M758.953 1013.69C670.045 897.594 490.03 818.054 509.724 673.155C529.51 527.581 702.305 456.749 841.169 408.792C952.661 370.289 1062.59 430.014 1179.97 441.688C1337.46 457.352 1524.1 374.166 1634.38 487.686C1751.07 607.809 1771.87 821.05 1690.93 967.662C1616.22 1102.98 1419.27 1073.54 1277.24 1134.54C1170 1180.61 1085.48 1303.07 971.811 1276.56C857.664 1249.95 830.215 1106.75 758.953 1013.69Z" stroke="#18A640" stroke-width="2"/>
<path opacity="0.369748" fill-rule="evenodd" clip-rule="evenodd" d="M748.096 1004.51C661.228 886.875 482.629 804.205 504.849 659.672C527.172 514.466 701.177 446.66 840.857 401.134C953.004 364.582 1061.88 426.217 1179.03 439.938C1336.22 458.348 1524.28 378.432 1632.57 493.859C1747.15 616.001 1764.23 829.572 1680.73 974.749C1603.67 1108.75 1407.27 1075.87 1264.2 1134.39C1156.17 1178.58 1069.53 1299.54 956.334 1271.05C842.669 1242.45 817.724 1098.79 748.096 1004.51Z" stroke="#18A741" stroke-width="2"/>
<path opacity="0.378151" fill-rule="evenodd" clip-rule="evenodd" d="M737.292 995.456C652.49 876.326 475.361 790.551 500.1 646.428C524.954 501.634 700.116 436.875 840.569 393.794C953.337 359.205 1061.12 422.73 1178.01 438.493C1334.86 459.644 1524.29 383.023 1630.54 500.322C1742.97 624.445 1756.32 838.281 1670.31 981.979C1590.92 1114.61 1395.12 1078.31 1251.05 1134.32C1142.26 1176.62 1053.52 1296.05 940.846 1265.59C827.698 1235.01 805.264 1090.94 737.292 995.456Z" stroke="#18A841" stroke-width="2"/>
<path opacity="0.386555" fill-rule="evenodd" clip-rule="evenodd" d="M726.536 986.54C643.826 865.947 468.221 777.094 495.472 633.425C522.849 489.087 699.114 427.394 840.298 386.771C953.652 354.156 1060.31 419.552 1176.91 437.353C1333.36 461.238 1524.1 387.934 1628.29 507.07C1738.54 633.136 1748.15 847.173 1659.64 989.348C1577.95 1120.57 1382.82 1080.86 1237.79 1134.35C1128.28 1174.74 1037.47 1292.61 925.345 1260.19C812.748 1227.63 792.831 1083.2 726.536 986.54Z" stroke="#18A841" stroke-width="2"/>
<path opacity="0.394958" fill-rule="evenodd" clip-rule="evenodd" d="M715.827 977.759C635.234 855.741 461.207 763.837 490.96 620.665C520.853 476.827 698.167 418.22 840.039 380.067C953.945 349.435 1059.44 416.683 1175.72 436.516C1331.73 463.128 1523.72 393.164 1625.81 514.1C1733.84 642.071 1739.72 856.243 1648.74 996.852C1564.78 1126.63 1370.36 1083.52 1224.43 1134.47C1114.23 1172.94 1021.38 1289.21 909.83 1254.84C797.818 1220.32 780.425 1075.56 715.827 977.759Z" stroke="#18A941" stroke-width="2"/>
<path opacity="0.403361" fill-rule="evenodd" clip-rule="evenodd" d="M705.162 969.115C626.711 845.709 454.314 750.782 486.562 608.151C518.96 464.856 697.271 409.353 839.786 373.682C954.21 345.042 1058.52 414.121 1174.43 435.98C1329.95 465.311 1523.13 398.708 1623.1 521.408C1728.88 651.244 1731.02 865.487 1637.6 1004.49C1551.38 1132.78 1357.75 1086.28 1210.95 1134.68C1100.1 1171.22 1005.23 1285.85 894.3 1249.53C782.907 1213.07 768.043 1068.03 705.162 969.115Z" stroke="#18AA42" stroke-width="2"/>
<path opacity="0.411765" fill-rule="evenodd" clip-rule="evenodd" d="M694.54 960.608C618.255 835.852 447.541 737.93 482.273 595.884C517.167 453.176 696.419 400.793 839.536 367.615C954.442 340.977 1057.53 411.865 1173.04 435.745C1328.03 467.785 1522.34 404.564 1620.15 528.989C1723.65 660.652 1722.05 874.899 1626.22 1012.25C1537.78 1139.02 1344.99 1089.15 1197.36 1134.97C1085.89 1169.58 989.034 1282.53 878.755 1244.29C768.016 1205.88 755.685 1060.6 694.54 960.608Z" stroke="#18AB42" stroke-width="2"/>
<path opacity="0.420168" fill-rule="evenodd" clip-rule="evenodd" d="M683.957 952.239C609.861 826.17 440.881 725.284 478.088 583.866C515.467 441.789 695.606 392.542 839.279 361.867C954.633 337.238 1056.47 409.915 1171.54 435.806C1325.95 470.547 1521.34 410.726 1616.96 536.84C1718.14 670.289 1712.81 884.476 1614.6 1020.13C1523.95 1145.34 1332.06 1092.11 1183.66 1135.35C1071.6 1168.01 972.787 1279.25 863.193 1239.09C753.141 1198.76 743.348 1053.29 683.957 952.239Z" stroke="#18AB42" stroke-width="2"/>
<path opacity="0.428571" fill-rule="evenodd" clip-rule="evenodd" d="M673.411 944.008C601.526 816.666 434.333 712.846 474.002 572.098C513.855 430.695 694.826 384.601 839.013 356.437C954.779 333.825 1055.33 408.268 1169.94 436.164C1323.71 473.594 1520.11 417.193 1613.52 544.956C1712.36 680.151 1703.28 894.212 1602.72 1028.13C1509.91 1151.74 1318.97 1095.17 1169.84 1135.82C1057.23 1166.51 956.49 1276.01 847.613 1233.94C738.282 1191.7 731.029 1046.08 673.411 944.008Z" stroke="#19AC43" stroke-width="2"/>
<path opacity="0.436975" fill-rule="evenodd" clip-rule="evenodd" d="M662.901 935.917C593.25 807.339 427.894 700.618 470.013 560.584C512.328 419.898 694.076 376.968 838.732 351.325C954.875 330.737 1054.11 406.924 1168.21 436.816C1321.31 476.924 1518.67 423.959 1609.83 553.333C1706.3 690.232 1693.49 904.102 1590.6 1036.25C1495.64 1158.21 1305.73 1098.32 1155.91 1136.36C1042.77 1165.08 940.143 1272.81 832.017 1228.85C723.439 1184.7 718.729 1038.98 662.901 935.917Z" stroke="#19AD43" stroke-width="2"/>
<path opacity="0.445378" fill-rule="evenodd" clip-rule="evenodd" d="M652.422 927.966C585.025 798.192 421.557 688.601 466.114 549.323C510.878 409.397 693.347 369.646 838.429 346.532C954.913 327.974 1052.8 405.881 1166.37 437.759C1318.75 480.533 1516.99 431.021 1605.88 561.966C1699.95 700.528 1683.41 914.141 1578.23 1044.47C1481.16 1164.76 1292.32 1101.56 1141.85 1136.98C1028.24 1163.73 923.742 1269.64 816.4 1223.8C708.609 1177.77 706.443 1031.98 652.422 927.966Z" stroke="#19AE43" stroke-width="2"/>
<path opacity="0.453782" fill-rule="evenodd" clip-rule="evenodd" d="M641.973 920.155C576.851 789.225 415.321 676.797 462.301 538.318C509.5 399.195 692.636 362.634 838.099 342.056C954.89 325.533 1051.41 405.137 1164.4 438.993C1316 484.42 1515.09 438.374 1601.68 570.851C1693.31 711.033 1673.04 924.326 1565.61 1052.8C1466.45 1171.38 1278.74 1104.89 1127.68 1137.68C1013.62 1162.44 907.289 1266.52 800.763 1218.81C693.792 1170.9 694.17 1025.1 641.973 920.155Z" stroke="#19AE43" stroke-width="2"/>
<path opacity="0.462185" fill-rule="evenodd" clip-rule="evenodd" d="M631.553 912.485C568.726 780.438 409.182 665.208 458.572 527.571C508.192 389.292 691.938 355.933 837.738 337.896C954.799 323.415 1049.91 404.691 1162.29 440.513C1313.09 488.579 1512.94 446.015 1597.21 579.983C1686.38 721.743 1662.39 934.65 1552.73 1061.23C1451.52 1178.06 1265 1108.31 1113.39 1138.45C998.912 1161.22 890.783 1263.42 785.106 1213.86C678.987 1164.1 681.91 1018.32 631.553 912.485Z" stroke="#19AF44" stroke-width="2"/>
<path opacity="0.470588" fill-rule="evenodd" clip-rule="evenodd" d="M621.156 904.956C560.643 771.833 403.135 653.836 454.919 517.082C506.945 379.69 691.245 349.543 837.338 334.054C954.634 321.617 1048.31 404.541 1160.05 442.319C1309.98 493.009 1510.55 453.94 1592.47 589.358C1679.15 732.653 1651.45 945.108 1539.6 1069.75C1436.36 1184.8 1251.09 1111.8 1098.98 1139.3C984.118 1160.06 874.222 1260.37 769.426 1208.97C664.192 1157.36 669.659 1011.66 621.156 904.956Z" stroke="#19B044" stroke-width="2"/>
<path opacity="0.478992" fill-rule="evenodd" clip-rule="evenodd" d="M610.782 897.569C552.602 763.41 397.177 642.682 451.34 506.852C505.756 370.39 690.553 343.464 836.895 330.526C954.39 320.139 1046.61 404.685 1157.67 444.408C1306.69 497.707 1507.91 462.143 1587.45 598.97C1671.62 743.756 1640.22 955.696 1526.21 1078.37C1420.98 1191.6 1237.01 1115.38 1084.44 1140.22C969.237 1158.97 857.607 1257.34 753.723 1204.12C649.406 1150.68 657.415 1005.1 610.782 897.569Z" stroke="#19B144" stroke-width="2"/>
<path opacity="0.487395" fill-rule="evenodd" clip-rule="evenodd" d="M600.429 890.324C544.599 755.17 391.304 631.749 447.83 496.884C504.619 361.392 689.859 337.696 836.403 327.314C954.062 318.979 1044.79 405.121 1155.14 446.776C1303.21 502.668 1505.02 470.622 1582.16 608.816C1663.79 755.049 1628.69 966.408 1512.56 1087.07C1405.37 1198.45 1222.76 1119.03 1069.78 1141.2C954.267 1157.94 840.937 1254.35 737.998 1199.33C634.63 1144.07 645.178 998.654 600.429 890.324Z" stroke="#19B145" stroke-width="2"/>
<path opacity="0.495798" fill-rule="evenodd" clip-rule="evenodd" d="M590.092 883.221C536.63 747.114 385.512 621.036 444.383 487.179C503.528 352.698 689.153 332.238 835.857 324.416C953.643 318.135 1042.85 405.848 1152.46 449.423C1299.53 507.89 1501.87 479.371 1576.59 618.89C1655.65 766.525 1616.87 977.24 1498.65 1095.86C1389.54 1205.35 1208.34 1122.76 1055 1142.25C939.206 1156.97 824.211 1251.39 722.248 1194.58C619.859 1137.53 632.944 992.316 590.092 883.221Z" stroke="#19B245" stroke-width="2"/>
<path opacity="0.504202" fill-rule="evenodd" clip-rule="evenodd" d="M579.771 876.262C528.692 739.242 379.798 610.545 440.996 477.736C502.479 344.308 688.432 327.091 835.25 321.83C953.128 317.606 1040.8 406.862 1149.63 452.343C1295.66 513.369 1498.46 488.385 1570.73 629.188C1647.21 778.18 1604.76 988.186 1484.48 1104.73C1373.47 1212.29 1193.74 1126.55 1040.08 1143.37C924.054 1156.07 807.428 1248.46 706.472 1189.88C605.095 1131.05 620.712 986.087 579.771 876.262Z" stroke="#1AB345" stroke-width="2"/>
<path opacity="0.512605" fill-rule="evenodd" clip-rule="evenodd" d="M569.462 869.445C520.782 731.554 374.157 600.279 437.663 468.558C501.465 336.224 687.691 322.254 834.578 319.557C952.512 317.391 1038.61 408.163 1146.63 455.537C1291.57 519.101 1494.78 497.661 1564.58 639.703C1638.45 790.008 1592.34 999.24 1470.05 1113.66C1357.18 1219.27 1178.97 1130.41 1025.04 1144.54C908.809 1155.21 790.589 1245.56 690.671 1185.22C590.336 1124.64 608.48 979.968 569.462 869.445Z" stroke="#1AB445" stroke-width="2"/>
<path opacity="0.521008" fill-rule="evenodd" clip-rule="evenodd" d="M559.164 862.771C512.898 724.052 368.586 590.238 434.382 459.645C500.484 328.445 686.925 317.728 833.837 317.594C951.79 317.486 1036.29 409.748 1143.47 458.999C1287.28 525.084 1490.83 507.193 1558.14 650.432C1629.37 802.003 1579.62 1010.4 1455.35 1122.67C1340.65 1226.3 1164.02 1134.33 1009.87 1145.78C893.472 1154.42 773.693 1242.69 674.843 1180.62C575.581 1118.29 596.248 973.959 559.164 862.771Z" stroke="#1AB446" stroke-width="2"/>
<path opacity="0.529412" fill-rule="evenodd" clip-rule="evenodd" d="M548.873 856.241C505.034 716.736 363.08 580.423 431.145 450.999C499.527 320.972 686.127 313.51 833.019 315.94C950.956 317.891 1033.83 411.613 1140.13 462.728C1282.77 531.312 1486.6 516.977 1551.41 661.368C1619.98 814.159 1566.59 1021.66 1440.39 1131.74C1323.9 1233.35 1148.9 1138.32 994.574 1147.07C878.04 1153.68 756.739 1239.84 658.987 1176.06C560.828 1112.01 584.01 968.059 548.873 856.241Z" stroke="#1AB546" stroke-width="2"/>
<path opacity="0.537815" fill-rule="evenodd" clip-rule="evenodd" d="M538.586 849.854C497.19 709.605 357.636 570.836 427.949 442.619C498.59 313.805 685.292 309.601 832.119 314.595C950.004 318.604 1031.23 413.758 1136.63 466.72C1278.04 537.783 1482.09 527.007 1544.37 672.508C1610.26 826.472 1553.27 1033.01 1425.16 1140.87C1306.91 1240.43 1133.6 1142.36 979.144 1148.42C862.513 1152.99 739.726 1237.03 643.103 1171.54C546.076 1105.79 571.767 962.268 538.586 849.854Z" stroke="#1AB646" stroke-width="2"/>
<path opacity="0.546219" fill-rule="evenodd" clip-rule="evenodd" d="M528.304 843.611C489.361 702.661 352.25 561.477 424.791 434.507C497.668 306.945 684.415 306.001 831.133 313.556C948.93 319.622 1028.48 416.179 1132.94 470.972C1273.09 544.493 1477.3 537.28 1537.03 683.845C1600.22 838.936 1539.63 1044.44 1409.66 1150.06C1289.7 1247.54 1118.12 1146.46 963.584 1149.82C846.89 1152.36 722.655 1234.23 627.19 1167.08C531.325 1099.64 559.517 956.587 528.304 843.611Z" stroke="#1AB747" stroke-width="2"/>
<path opacity="0.554622" fill-rule="evenodd" clip-rule="evenodd" d="M518.02 837.511C481.543 695.903 346.918 552.348 421.663 426.663C496.756 300.393 683.49 302.707 830.054 312.822C947.727 320.943 1025.58 418.874 1129.07 475.482C1267.92 551.437 1472.22 547.789 1529.38 695.374C1589.86 851.544 1525.69 1055.96 1393.89 1159.29C1272.25 1254.66 1102.46 1150.6 947.89 1151.27C831.169 1151.77 705.525 1231.47 611.246 1162.65C516.573 1093.55 547.257 951.015 518.02 837.511Z" stroke="#1AB747" stroke-width="2"/>
<path opacity="0.563025" fill-rule="evenodd" clip-rule="evenodd" d="M507.734 831.555C473.734 689.331 341.634 543.449 418.561 419.087C495.847 294.147 682.513 299.72 828.877 312.391C946.391 322.564 1022.53 421.839 1125.01 480.245C1262.51 558.611 1466.84 558.53 1521.42 707.09C1579.16 864.292 1511.44 1067.56 1377.86 1168.57C1254.57 1261.81 1086.62 1154.8 932.062 1152.77C815.351 1151.23 688.335 1228.72 595.271 1158.27C501.818 1087.53 534.986 945.551 507.734 831.555Z" stroke="#1AB847" stroke-width="2"/>
<path opacity="0.571429" fill-rule="evenodd" clip-rule="evenodd" d="M497.444 825.742C465.931 682.946 336.398 534.781 415.483 411.781C494.937 288.208 681.478 297.038 827.599 312.262C944.917 324.484 1019.31 425.073 1120.75 485.258C1256.87 566.013 1461.17 569.497 1513.15 718.987C1568.14 877.173 1496.88 1079.23 1361.55 1177.89C1236.65 1268.96 1070.6 1159.04 916.102 1154.31C799.435 1150.74 671.086 1226 579.265 1153.94C487.062 1081.58 522.702 940.197 497.444 825.742Z" stroke="#1AB947" stroke-width="2"/>
<path opacity="0.579832" fill-rule="evenodd" clip-rule="evenodd" d="M487.145 820.072C458.129 676.749 331.201 526.345 412.422 404.744C494.021 282.577 680.378 294.661 826.211 312.433C943.299 326.701 1015.92 428.572 1116.3 490.519C1250.99 573.637 1455.2 580.686 1504.56 731.061C1556.78 890.182 1482 1090.96 1344.98 1187.25C1218.51 1276.13 1054.4 1163.32 900.005 1155.9C783.419 1150.29 653.775 1223.3 563.226 1149.65C472.3 1075.69 510.402 934.951 487.145 820.072Z" stroke="#1BBA48" stroke-width="2"/>
<path opacity="0.588235" fill-rule="evenodd" clip-rule="evenodd" d="M476.837 814.546C450.327 670.738 326.043 518.142 409.373 397.977C493.092 277.253 679.21 292.588 824.711 312.901C941.531 329.211 1012.37 432.334 1111.65 496.023C1244.86 581.479 1448.92 592.091 1495.65 743.304C1545.09 903.313 1466.81 1102.76 1328.13 1196.64C1200.13 1283.29 1038.02 1167.65 883.772 1157.52C767.302 1149.88 636.404 1220.62 547.154 1145.4C457.532 1069.86 498.085 929.813 476.837 814.546Z" stroke="#1BBA48" stroke-width="2"/>
<path opacity="0.596639" fill-rule="evenodd" clip-rule="evenodd" d="M466.516 809.163C442.52 664.914 320.918 510.172 406.333 391.48C492.145 272.235 677.968 290.816 823.092 313.665C939.61 332.011 1008.64 436.355 1106.79 501.767C1238.49 589.535 1442.34 603.707 1486.41 755.712C1533.05 916.559 1451.31 1114.61 1311.01 1206.06C1181.52 1290.46 1021.45 1172 867.404 1159.19C751.084 1149.52 618.972 1217.96 531.049 1141.19C442.758 1064.1 485.749 924.783 466.516 809.163Z" stroke="#1BBB48" stroke-width="2"/>
<path opacity="0.605042" fill-rule="evenodd" clip-rule="evenodd" d="M456.181 803.922C434.706 659.276 315.823 502.436 403.297 385.252C491.177 267.523 676.647 289.344 821.35 314.723C937.53 335.1 1004.72 440.633 1101.72 507.748C1231.87 597.8 1435.44 615.528 1476.86 768.279C1520.68 929.916 1435.5 1126.51 1293.62 1215.49C1162.67 1297.63 1004.7 1176.39 850.899 1160.89C734.766 1149.19 601.479 1215.32 514.909 1137.03C427.978 1058.41 473.393 919.86 456.181 803.922Z" stroke="#1BBC49" stroke-width="2"/>
<path opacity="0.613445" fill-rule="evenodd" clip-rule="evenodd" d="M445.827 798.824C426.88 653.825 310.753 494.934 400.258 379.295C490.18 263.118 675.241 288.172 819.479 316.073C935.286 338.474 1000.63 445.163 1096.44 513.961C1225 606.271 1428.22 627.549 1466.97 781C1507.97 943.377 1419.36 1138.45 1275.96 1224.95C1143.6 1304.78 987.758 1180.81 834.255 1162.63C718.344 1148.9 583.924 1212.69 498.733 1132.9C413.187 1052.78 461.014 915.045 445.827 798.824Z" stroke="#1BBD49" stroke-width="2"/>
<path opacity="0.621849" fill-rule="evenodd" clip-rule="evenodd" d="M435.454 793.868C419.04 648.561 305.704 487.667 397.213 373.608C489.149 259.017 673.744 287.298 817.474 317.712C932.872 342.13 996.342 449.944 1090.94 520.403C1217.87 614.943 1420.69 639.764 1456.75 793.868C1494.91 956.936 1402.91 1150.43 1258.02 1234.42C1124.29 1311.93 970.636 1185.25 817.474 1164.4C701.82 1148.65 566.306 1210.08 482.521 1128.82C398.387 1047.22 448.61 910.336 435.454 793.868Z" stroke="#1BBD49" stroke-width="2"/>
<path opacity="0.630252" fill-rule="evenodd" clip-rule="evenodd" d="M425.059 789.054C411.184 643.482 300.673 480.635 394.159 368.19C488.081 255.222 672.154 286.719 815.331 319.637C930.285 346.066 991.864 454.971 1085.22 527.07C1210.47 623.811 1412.83 652.168 1446.2 806.878C1481.51 970.586 1386.15 1162.45 1239.81 1243.89C1104.74 1319.06 953.329 1189.72 800.554 1166.19C685.193 1148.43 548.628 1207.49 466.274 1124.78C383.576 1041.72 436.181 905.733 425.059 789.054Z" stroke="#1BBE49" stroke-width="2"/>
<path opacity="0.638655" fill-rule="evenodd" clip-rule="evenodd" d="M414.639 784.381C403.306 638.589 295.654 473.838 391.088 363.042C486.967 251.73 670.463 286.435 813.043 321.847C927.519 350.278 987.188 460.241 1079.27 533.958C1202.82 632.87 1404.65 664.755 1435.31 820.023C1467.76 984.324 1369.07 1174.49 1221.33 1253.37C1084.97 1326.17 935.835 1194.2 783.494 1168.02C668.46 1148.24 530.885 1204.91 449.988 1120.77C368.752 1036.28 423.722 901.237 414.639 784.381Z" stroke="#1BBF4A" stroke-width="2"/>
<path opacity="0.647059" fill-rule="evenodd" clip-rule="evenodd" d="M404.191 779.849C395.404 633.882 290.644 467.277 387.997 358.163C485.804 248.541 668.666 286.444 810.607 324.338C924.569 354.763 982.31 465.751 1073.09 541.064C1194.89 642.117 1396.14 677.519 1424.09 833.299C1453.66 998.141 1351.66 1186.56 1202.57 1262.84C1064.97 1333.25 918.156 1198.71 766.295 1169.86C651.624 1148.08 513.081 1202.34 433.664 1116.81C353.915 1030.91 411.233 896.846 404.191 779.849Z" stroke="#1BC04A" stroke-width="2"/>
<path opacity="0.655462" fill-rule="evenodd" clip-rule="evenodd" d="M393.714 775.457C387.476 629.359 285.639 460.951 384.882 353.553C484.588 245.655 666.76 286.743 808.018 327.109C921.432 359.518 977.227 471.496 1066.68 548.382C1186.7 651.546 1387.3 690.455 1412.52 846.699C1439.21 1012.03 1333.95 1198.64 1183.55 1272.31C1044.73 1340.31 900.29 1203.22 748.956 1171.73C634.682 1147.96 495.214 1199.79 417.302 1112.88C339.064 1025.6 398.714 892.559 393.714 775.457Z" stroke="#1CC04A" stroke-width="2"/>
<path opacity="0.663866" fill-rule="evenodd" clip-rule="evenodd" d="M383.204 771.205C379.517 625.021 280.635 454.861 381.737 349.211C483.31 243.07 664.738 287.331 805.27 330.156C918.101 364.539 971.933 477.475 1060.03 555.91C1178.23 661.153 1378.12 703.557 1400.61 860.217C1424.42 1025.99 1315.91 1210.73 1164.24 1281.77C1024.26 1347.33 882.238 1207.75 731.476 1173.62C617.635 1147.85 477.283 1197.24 400.899 1108.99C324.197 1020.36 386.159 888.377 383.204 771.205Z" stroke="#1CC14B" stroke-width="2"/>
<path opacity="0.672269" fill-rule="evenodd" clip-rule="evenodd" d="M372.659 767.093C371.524 620.866 275.627 449.007 378.558 345.137C481.968 240.785 662.596 288.206 802.358 333.477C914.572 369.824 966.425 483.681 1053.14 563.643C1169.49 670.932 1368.61 716.818 1388.36 873.847C1409.27 1040.01 1297.55 1222.83 1144.67 1291.21C1003.57 1354.32 863.999 1212.28 713.855 1175.52C600.481 1147.77 459.288 1194.71 384.457 1105.13C309.313 1015.18 373.569 884.298 372.659 767.093Z" stroke="#1CC24B" stroke-width="2"/>
<path opacity="0.680672" fill-rule="evenodd" clip-rule="evenodd" d="M362.079 763.119C363.496 616.895 270.612 443.388 375.34 341.331C480.555 238.799 660.328 289.365 799.28 337.068C910.842 375.369 960.7 490.114 1046 571.576C1160.46 680.88 1358.75 730.234 1375.76 887.584C1393.76 1054.09 1278.87 1234.93 1124.83 1300.63C982.64 1361.27 845.573 1216.81 696.095 1177.44C583.222 1147.72 441.231 1192.18 367.975 1101.31C294.412 1010.06 360.943 880.322 362.079 763.119Z" stroke="#1CC34B" stroke-width="2"/>
<path opacity="0.689076" fill-rule="evenodd" clip-rule="evenodd" d="M351.457 759.283C355.426 613.106 265.585 438.004 372.078 337.791C479.067 237.111 657.93 290.806 796.027 340.927C906.904 381.169 954.752 496.767 1038.62 579.705C1151.16 690.99 1348.55 743.797 1362.81 901.42C1377.91 1068.21 1259.88 1247.02 1104.71 1310.02C961.485 1368.17 826.961 1221.34 678.192 1179.37C565.855 1147.68 423.11 1189.66 351.45 1097.53C279.492 1005.01 348.276 876.449 351.457 759.283Z" stroke="#1CC34B" stroke-width="2"/>
<path opacity="0.697479" fill-rule="evenodd" clip-rule="evenodd" d="M340.794 755.585C347.314 609.499 260.542 432.856 368.768 334.516C477.497 235.719 655.396 292.528 792.598 345.051C902.755 387.222 948.578 503.637 1030.99 588.027C1141.56 701.259 1338.01 757.503 1349.52 915.351C1361.7 1082.38 1240.56 1259.1 1084.32 1319.39C940.103 1375.02 808.161 1225.87 660.147 1181.31C548.38 1147.67 404.925 1187.15 334.884 1093.78C264.551 1000.01 335.569 872.677 340.794 755.585Z" stroke="#1CC44C" stroke-width="2"/>
<path opacity="0.705882" fill-rule="evenodd" clip-rule="evenodd" d="M330.087 752.022C339.155 606.073 255.479 427.942 365.405 331.506C475.842 234.622 652.722 294.527 788.986 349.437C898.391 393.523 942.175 510.721 1023.1 596.536C1131.68 711.68 1327.11 771.344 1335.87 929.369C1345.13 1096.59 1220.93 1271.17 1063.66 1328.71C918.493 1381.83 789.175 1230.39 641.961 1183.26C530.799 1147.67 386.676 1184.64 318.275 1090.06C249.589 995.085 322.819 869.006 330.087 752.022Z" stroke="#1CC54C" stroke-width="2"/>
<path opacity="0.714286" fill-rule="evenodd" clip-rule="evenodd" d="M319.334 748.596C330.947 602.827 250.393 423.263 361.985 328.761C474.096 233.818 649.904 296.801 785.189 354.081C893.808 400.07 935.54 518.013 1014.95 605.228C1121.51 722.25 1315.87 785.315 1321.87 943.469C1328.21 1110.82 1200.98 1283.21 1042.73 1338C896.659 1388.57 770.003 1234.91 623.634 1185.21C513.11 1147.68 368.364 1182.13 301.624 1086.38C234.606 990.217 310.025 865.434 319.334 748.596Z" stroke="#1CC64C" stroke-width="2"/>
<path opacity="0.722689" fill-rule="evenodd" clip-rule="evenodd" d="M308.53 745.305C322.686 599.76 245.278 418.818 358.502 326.277C472.254 233.306 646.935 299.348 781.201 358.98C889 406.858 928.667 525.511 1006.55 614.098C1111.05 732.962 1304.28 799.41 1307.51 957.644C1310.93 1125.08 1180.72 1295.22 1021.53 1347.25C874.598 1395.26 750.644 1239.41 605.165 1187.16C495.312 1147.71 349.987 1179.63 284.929 1082.72C219.599 985.41 297.184 861.963 308.53 745.305Z" stroke="#1CC64D" stroke-width="2"/>
<path opacity="0.731092" fill-rule="evenodd" clip-rule="evenodd" d="M297.676 742.147C314.37 596.872 240.131 414.607 354.953 324.056C470.31 233.084 643.812 302.164 777.016 364.13C883.964 413.882 921.554 533.21 997.877 623.143C1100.28 743.812 1292.33 813.623 1292.8 971.889C1293.3 1139.36 1160.13 1307.21 1000.06 1356.44C852.314 1401.88 731.098 1243.89 586.553 1189.12C477.406 1147.76 331.546 1177.13 268.189 1079.1C204.568 980.664 284.295 858.59 297.676 742.147Z" stroke="#1DC74D" stroke-width="2"/>
<path opacity="0.739496" fill-rule="evenodd" clip-rule="evenodd" d="M286.768 739.123C305.995 594.161 234.949 410.628 351.334 322.095C468.261 233.15 640.531 305.248 772.633 369.529C878.696 421.14 914.199 541.106 988.94 632.357C1089.23 754.795 1280.02 827.947 1277.73 986.197C1275.3 1153.65 1139.23 1319.15 978.324 1365.58C829.809 1408.44 711.368 1248.35 567.801 1191.07C459.392 1147.81 313.042 1174.63 251.406 1075.51C189.512 975.978 271.358 855.314 286.768 739.123Z" stroke="#1DC84D" stroke-width="2"/>
<path opacity="0.747899" fill-rule="evenodd" clip-rule="evenodd" d="M275.804 736.23C297.558 591.626 229.726 406.881 347.638 320.393C466.099 233.502 637.085 308.595 768.045 375.173C873.191 428.627 906.594 549.194 979.732 641.735C1077.87 765.905 1267.35 842.375 1262.3 1000.56C1256.95 1167.95 1118.01 1331.04 956.321 1374.66C807.08 1414.92 691.452 1252.79 548.907 1193.01C441.269 1147.86 294.473 1172.13 234.576 1071.95C174.429 971.352 258.368 852.135 275.804 736.23Z" stroke="#1DC94D" stroke-width="2"/>
<path opacity="0.756303" fill-rule="evenodd" clip-rule="evenodd" d="M264.781 733.469C289.056 589.267 224.458 403.366 343.862 318.949C463.821 234.138 633.471 312.205 763.249 381.057C867.446 436.338 898.74 557.47 970.251 651.274C1066.2 777.138 1254.33 856.903 1246.51 1014.98C1238.25 1182.25 1096.48 1342.89 934.052 1383.68C784.132 1421.33 671.351 1257.21 529.87 1194.94C423.037 1147.93 275.84 1169.63 217.7 1068.42C159.318 966.786 245.325 849.052 264.781 733.469Z" stroke="#1DC94E" stroke-width="2"/>
<path opacity="0.764706" fill-rule="evenodd" clip-rule="evenodd" d="M253.699 730.838C280.486 587.082 219.143 400.082 340.002 317.761C461.423 235.057 629.684 316.072 758.241 387.18C861.458 444.27 890.633 565.93 960.496 660.968C1054.24 788.487 1240.94 871.523 1230.37 1029.44C1219.18 1196.54 1074.64 1354.68 911.52 1392.63C760.966 1427.66 651.066 1261.59 510.694 1196.87C404.698 1148 257.144 1167.13 200.779 1064.92C144.18 962.279 232.228 846.064 253.699 730.838Z" stroke="#1DCA4E" stroke-width="2"/>
<path opacity="0.773109" fill-rule="evenodd" clip-rule="evenodd" d="M242.553 728.336C271.845 585.069 213.774 397.027 336.052 316.828C458.898 236.256 625.719 320.195 753.016 393.535C855.22 452.419 882.268 574.569 950.461 670.812C1041.96 799.947 1227.19 886.23 1213.86 1043.93C1199.76 1210.81 1052.48 1366.41 888.724 1401.51C737.581 1433.9 630.596 1265.95 491.375 1198.78C386.248 1148.07 238.383 1164.62 183.811 1061.44C129.011 957.83 219.075 843.169 242.553 728.336Z" stroke="#1DCB4E" stroke-width="2"/>
<path opacity="0.781513" fill-rule="evenodd" clip-rule="evenodd" d="M231.342 725.962C263.129 583.228 208.35 394.201 332.008 316.149C456.242 237.733 621.573 324.571 747.57 400.121C848.731 460.78 873.642 583.383 940.146 680.801C1029.38 811.514 1213.07 901.016 1197 1058.46C1179.99 1225.07 1030.01 1378.08 865.666 1410.31C713.981 1440.06 609.943 1270.26 471.916 1200.68C367.69 1148.14 219.558 1162.1 166.795 1057.99C113.812 953.44 205.863 840.368 231.342 725.962Z" stroke="#1DCC4F" stroke-width="2"/>
<path opacity="0.789916" fill-rule="evenodd" clip-rule="evenodd" d="M220.063 723.715C254.337 581.557 202.865 391.603 327.866 315.721C453.45 239.485 617.24 329.195 741.899 406.933C841.986 469.348 864.754 592.367 929.548 690.931C1016.49 823.181 1198.59 915.876 1179.77 1073.02C1159.85 1239.3 1007.23 1389.67 842.347 1419.03C690.166 1446.13 589.108 1274.54 452.315 1202.56C349.022 1148.2 200.669 1159.59 149.732 1054.57C98.5811 949.107 192.591 837.659 220.063 723.715Z" stroke="#1DCC4F" stroke-width="2"/>
<path opacity="0.798319" fill-rule="evenodd" clip-rule="evenodd" d="M208.716 721.593C245.466 580.056 197.316 389.232 323.623 315.543C450.518 241.51 612.718 334.065 736.001 413.967C834.984 478.119 855.601 601.517 918.665 701.197C1003.28 834.944 1183.74 930.802 1162.18 1087.59C1139.36 1253.51 984.137 1401.18 818.77 1427.66C666.139 1452.1 568.091 1278.77 432.576 1204.42C330.247 1148.27 181.718 1157.06 132.621 1051.17C83.3188 944.831 179.26 835.04 208.716 721.593Z" stroke="#1DCD4F" stroke-width="2"/>
<path opacity="0.806723" fill-rule="evenodd" clip-rule="evenodd" d="M197.296 719.596C236.51 578.721 191.699 387.086 319.272 315.612C447.44 243.806 608 339.177 729.87 421.218C827.718 487.088 846.179 610.827 907.493 711.592C989.762 846.796 1168.52 945.789 1144.23 1102.18C1118.52 1267.67 960.738 1412.62 794.935 1436.2C641.9 1457.97 546.892 1282.96 412.696 1206.25C311.362 1148.33 162.702 1154.52 115.461 1047.79C68.022 940.611 165.864 832.511 197.296 719.596Z" stroke="#1DCE4F" stroke-width="2"/>
<path opacity="0.815126" fill-rule="evenodd" clip-rule="evenodd" d="M185.802 717.722C227.469 577.552 186.009 385.165 314.81 315.928C444.212 246.369 603.082 344.529 723.502 428.684C820.186 496.251 836.484 620.294 896.03 722.114C975.928 858.733 1152.93 960.83 1125.91 1116.77C1097.32 1281.79 937.033 1423.96 770.843 1444.65C617.452 1463.75 525.513 1287.11 392.676 1208.06C292.369 1148.38 143.623 1151.98 98.2517 1044.44C52.6907 936.446 152.405 830.071 185.802 717.722Z" stroke="#1ECF50" stroke-width="2"/>
<path opacity="0.823529" fill-rule="evenodd" clip-rule="evenodd" d="M174.233 715.969C218.34 576.548 180.244 383.466 310.234 316.488C440.83 249.198 597.963 350.115 716.896 436.36C812.386 505.604 826.517 629.912 884.277 732.756C961.778 870.748 1136.97 975.919 1107.23 1131.37C1075.77 1295.86 913.025 1435.21 746.499 1453C592.798 1469.41 503.956 1291.19 372.518 1209.85C273.268 1148.42 124.482 1149.42 80.9943 1041.11C37.3249 932.337 138.88 827.719 174.233 715.969Z" stroke="#1ECF50" stroke-width="2"/>
<path opacity="0.831933" fill-rule="evenodd" clip-rule="evenodd" d="M162.585 714.337C209.119 575.707 174.398 381.989 305.537 317.29C437.287 252.29 592.636 355.934 710.045 444.241C804.312 515.141 816.271 639.677 872.228 743.513C947.309 882.837 1120.64 991.05 1088.19 1145.96C1053.86 1309.87 888.712 1446.36 721.901 1461.24C567.937 1474.97 482.218 1295.23 352.22 1211.6C254.057 1148.45 105.277 1146.86 63.6862 1037.8C21.9217 928.283 125.287 825.452 162.585 714.337Z" stroke="#1ED050" stroke-width="2"/>
<path opacity="0.840336" fill-rule="evenodd" clip-rule="evenodd" d="M150.857 712.823C199.803 575.027 168.468 380.733 300.717 318.332C433.581 255.641 587.097 361.981 702.948 452.323C795.962 524.858 805.747 649.583 859.882 754.38C932.52 894.993 1103.94 1006.21 1068.79 1160.53C1031.61 1323.82 864.097 1457.41 697.053 1469.37C542.872 1480.42 460.304 1299.21 331.785 1213.32C234.739 1148.47 86.009 1144.28 46.3279 1034.51C6.48111 924.282 111.626 823.271 150.857 712.823Z" stroke="#1ED151" stroke-width="2"/>
<path opacity="0.84874" fill-rule="evenodd" clip-rule="evenodd" d="M139.048 711.428C190.391 574.506 162.452 379.695 295.769 319.612C429.708 259.249 581.344 368.252 695.6 460.602C787.335 534.749 794.941 659.627 847.24 765.352C917.412 907.212 1086.86 1021.41 1049.03 1175.09C1009 1337.7 839.185 1468.35 671.956 1477.4C517.607 1485.75 438.213 1303.12 311.213 1215.01C215.314 1148.47 66.6795 1141.69 28.9202 1031.24C-8.99681 920.334 97.8947 821.174 139.048 711.428Z" stroke="#1ED251" stroke-width="2"/>
<path opacity="0.857143" fill-rule="evenodd" clip-rule="evenodd" d="M127.153 710.148C180.878 574.144 156.343 378.875 290.689 321.127C425.66 263.111 575.371 374.744 687.998 469.074C778.425 544.811 783.851 669.802 834.296 776.424C901.982 919.487 1069.41 1036.62 1028.9 1189.62C986.041 1351.51 813.973 1479.17 646.612 1485.3C492.14 1490.96 415.947 1306.97 290.503 1216.65C195.78 1148.45 47.2868 1139.08 11.4607 1027.99C-24.5149 916.439 84.0909 819.16 127.153 710.148Z" stroke="#1ED251" stroke-width="2"/>
<path opacity="0.865546" fill-rule="evenodd" clip-rule="evenodd" d="M115.172 708.983C171.263 573.937 150.139 378.27 285.472 322.876C421.436 267.224 569.176 381.453 680.139 477.734C769.23 555.038 772.473 680.104 821.05 787.591C886.23 931.813 1051.59 1051.85 1008.42 1204.12C962.736 1365.24 788.466 1489.88 621.024 1493.08C466.477 1496.04 393.505 1310.76 269.658 1218.26C176.139 1148.42 27.832 1136.45 -6.04985 1024.76C-40.0732 912.596 70.2139 817.227 115.172 708.983Z" stroke="#1ED351" stroke-width="2"/>
<path opacity="0.87395" fill-rule="evenodd" clip-rule="evenodd" d="M103.104 707.931C161.542 573.885 143.837 377.878 280.117 324.855C417.03 271.585 562.754 388.374 672.021 486.578C759.749 565.424 760.809 690.528 807.503 798.846C870.155 944.184 1033.39 1067.09 987.573 1218.58C939.085 1378.88 762.667 1500.46 595.194 1500.74C440.619 1501 370.892 1314.47 248.678 1219.83C156.392 1148.36 8.31652 1133.81 -23.6108 1021.54C-55.6715 908.804 56.2632 815.374 103.104 707.931Z" stroke="#1ED452" stroke-width="2"/>
<path opacity="0.882353" fill-rule="evenodd" clip-rule="evenodd" d="M90.944 706.991C151.713 573.985 137.432 377.7 274.615 327.063C412.438 276.19 556.102 395.505 663.637 495.6C749.976 575.966 748.853 701.07 793.649 810.186C853.755 956.595 1014.83 1082.33 966.366 1233C915.088 1392.43 736.575 1510.91 569.123 1508.27C414.567 1505.83 348.106 1318.11 227.562 1221.35C136.538 1148.29 -11.2614 1131.15 -41.2245 1018.34C-71.3127 905.062 42.2355 813.6 90.944 706.991Z" stroke="#1ED552" stroke-width="2"/>
<path opacity="0.890756" fill-rule="evenodd" clip-rule="evenodd" d="M78.6921 706.161C141.773 574.236 130.919 377.731 268.966 329.496C407.656 281.036 549.215 402.84 654.988 504.797C739.911 586.657 736.604 711.722 779.489 821.604C837.031 969.039 995.882 1097.57 944.801 1247.37C890.748 1405.88 710.194 1521.22 542.814 1515.66C388.324 1510.53 325.15 1321.68 206.312 1222.83C116.577 1148.19 -30.9004 1128.47 -58.8901 1015.16C-86.9967 901.37 28.1305 811.903 78.6921 706.161Z" stroke="#1FD552" stroke-width="2"/>
<path opacity="0.89916" fill-rule="evenodd" clip-rule="evenodd" d="M66.346 705.439C131.72 574.635 124.297 377.97 263.165 332.152C402.679 286.12 542.091 410.376 646.068 514.164C729.55 597.493 724.061 722.482 765.022 833.095C819.982 981.512 976.565 1112.79 922.877 1261.68C866.067 1419.22 683.527 1531.4 516.27 1522.92C361.893 1515.09 302.024 1325.16 184.93 1224.25C96.511 1148.06 -50.6001 1125.78 -76.6079 1011.99C-102.724 897.727 13.9467 810.283 66.346 705.439Z" stroke="#1FD653" stroke-width="2"/>
<path opacity="0.907563" fill-rule="evenodd" clip-rule="evenodd" d="M53.905 704.824C121.552 575.181 117.563 378.417 257.209 335.029C397.505 291.439 534.727 418.109 636.877 523.695C718.892 608.469 711.222 733.343 750.246 844.654C802.608 994.008 956.876 1128 900.598 1275.93C841.047 1432.45 656.578 1541.43 489.493 1530.03C335.276 1519.51 278.731 1328.57 163.416 1225.63C76.3406 1147.9 -70.3592 1123.06 -94.3772 1008.83C-118.496 894.131 -0.316176 808.737 53.905 704.824Z" stroke="#1FD753" stroke-width="2"/>
<path opacity="0.915966" fill-rule="evenodd" clip-rule="evenodd" d="M41.3651 704.314C111.264 575.871 110.71 379.067 251.092 338.123C392.127 296.988 527.118 426.034 627.409 533.387C707.932 619.579 698.084 744.3 735.16 856.275C784.907 1006.52 936.813 1143.19 877.962 1290.11C815.688 1445.57 629.345 1551.31 462.485 1536.99C308.475 1523.78 255.271 1331.89 141.77 1226.95C56.0646 1147.72 -90.1793 1120.31 -112.2 1005.69C-134.313 890.584 -14.6613 807.265 41.3651 704.314Z" stroke="#1FD853" stroke-width="2"/>
<path opacity="0.92437" fill-rule="evenodd" clip-rule="evenodd" d="M28.7256 703.907C100.856 576.703 103.736 379.92 244.811 341.432C386.543 302.765 519.261 434.147 617.664 543.234C696.67 630.818 684.647 755.348 719.763 867.953C766.88 1019.04 916.378 1158.34 854.972 1304.21C789.994 1458.56 601.834 1561.03 435.249 1543.81C281.493 1527.91 231.646 1335.12 119.994 1228.22C35.6843 1147.5 -110.059 1117.55 -130.076 1002.55C-150.177 887.082 -29.0891 805.865 28.7256 703.907Z" stroke="#1FD853" stroke-width="2"/>
<path opacity="0.932773" fill-rule="evenodd" clip-rule="evenodd" d="M15.9855 703.602C90.3249 577.676 96.6388 380.973 238.364 344.953C380.749 308.766 511.154 442.444 607.638 553.231C685.104 642.181 670.909 766.483 704.054 879.683C748.527 1031.57 895.572 1173.46 831.629 1318.23C763.968 1471.43 574.048 1570.6 407.789 1550.47C254.334 1531.89 207.859 1338.26 98.0896 1229.43C15.2016 1147.25 -129.997 1114.76 -148.004 999.432C-166.086 883.627 -43.5997 804.535 15.9855 703.602Z" stroke="#1FD954" stroke-width="2"/>
<path opacity="0.941176" fill-rule="evenodd" clip-rule="evenodd" d="M3.1413 703.396C79.667 578.787 89.4129 382.224 231.745 348.683C374.74 314.986 502.792 450.92 597.328 563.374C673.229 653.663 656.868 777.697 688.032 891.459C729.848 1044.1 874.393 1188.53 807.934 1332.17C737.609 1484.16 545.987 1580 380.105 1556.97C226.998 1535.72 183.91 1341.3 76.056 1230.57C-5.38525 1146.96 -149.995 1111.94 -165.986 996.32C-182.045 880.216 -58.1964 803.274 3.1413 703.396Z" stroke="#1FDA54" stroke-width="2"/>
<path opacity="0.94958" fill-rule="evenodd" clip-rule="evenodd" d="M-9.80783 703.288C68.881 580.034 82.0559 383.671 224.952 352.619C368.513 321.423 494.174 459.57 586.732 573.658C661.046 665.257 642.522 788.987 671.697 903.276C710.842 1056.63 852.845 1203.56 783.889 1346.01C710.922 1496.75 517.657 1589.23 352.201 1563.32C199.488 1539.39 159.8 1344.25 53.8953 1231.66C-26.0743 1146.64 -170.05 1109.1 -184.022 993.216C-198.052 876.85 -72.8793 802.08 -9.80783 703.288Z" stroke="#1FDB54" stroke-width="2"/>
<path opacity="0.957983" fill-rule="evenodd" clip-rule="evenodd" d="M-22.8626 703.277C57.9653 581.415 74.5652 385.311 217.982 356.758C362.066 328.072 485.295 468.392 575.849 584.077C648.553 676.96 627.873 800.348 655.048 915.128C691.511 1069.14 830.928 1218.52 759.496 1359.75C683.909 1509.2 489.059 1598.29 324.082 1569.49C171.81 1542.91 135.533 1347.1 31.6095 1232.68C-46.8641 1146.27 -190.163 1106.23 -202.11 990.119C-214.107 873.526 -87.6486 800.953 -22.8626 703.277Z" stroke="#1FDB55" stroke-width="2"/>
<path opacity="0.966387" fill-rule="evenodd" clip-rule="evenodd" d="M-36.0267 703.359C46.9157 582.926 66.9355 387.143 210.828 361.097C355.391 334.929 476.153 477.378 564.674 594.627C635.746 688.764 612.915 811.772 638.083 927.009C671.853 1081.63 808.641 1233.43 734.756 1373.39C656.572 1521.49 460.197 1607.17 295.748 1575.5C143.962 1546.26 111.108 1349.85 9.19782 1233.63C-67.7558 1145.87 -210.334 1103.33 -220.253 987.03C-230.213 870.245 -102.508 799.89 -36.0267 703.359Z" stroke="#20DC55" stroke-width="2"/>
<path opacity="0.97479" fill-rule="evenodd" clip-rule="evenodd" d="M-49.3007 703.534C35.7309 584.567 59.1646 389.163 203.49 365.632C348.487 341.992 466.745 486.527 553.206 605.302C622.624 700.665 597.65 823.256 620.803 938.915C651.869 1094.1 785.988 1248.26 709.671 1386.91C628.914 1533.63 431.074 1615.87 267.202 1581.33C115.95 1549.45 86.5292 1352.5 -13.3376 1234.51C-88.7478 1145.42 -230.562 1100.4 -238.45 983.946C-246.37 867.006 -117.456 798.89 -49.3007 703.534Z" stroke="#20DD55" stroke-width="2"/>
<path opacity="0.983193" fill-rule="evenodd" clip-rule="evenodd" d="M-62.6852 703.799C24.4097 586.334 51.2501 391.369 195.964 370.36C341.352 349.254 457.069 495.831 541.444 616.097C609.188 712.658 582.078 834.794 603.209 950.839C631.561 1106.55 762.969 1263.02 684.244 1400.32C600.939 1545.61 401.694 1624.38 238.45 1586.98C87.7775 1552.47 61.7981 1355.03 -35.9944 1235.32C-109.838 1144.93 -250.845 1097.44 -256.699 980.868C-262.577 863.807 -132.494 797.951 -62.6852 703.799Z" stroke="#20DE55" stroke-width="2"/>
<path opacity="0.991597" fill-rule="evenodd" clip-rule="evenodd" d="M-76.1837 704.153C12.9479 588.226 43.1869 393.758 188.246 375.279C333.98 356.713 447.121 505.287 529.384 627.008C595.432 724.736 566.195 846.38 585.297 962.777C610.928 1118.95 739.585 1277.7 658.476 1413.61C572.648 1557.41 372.058 1632.7 209.492 1592.46C59.4447 1555.32 36.915 1357.46 -58.7734 1236.06C-131.029 1144.39 -271.185 1094.45 -275.004 977.793C-278.838 860.647 -147.625 797.072 -76.1837 704.153Z" stroke="#20DE56" stroke-width="2"/>
<path fill-rule="evenodd" clip-rule="evenodd" d="M-89.7969 704.593C1.3444 590.239 34.9727 396.329 180.332 380.384C326.368 364.365 436.899 514.891 517.025 638.028C581.357 736.894 550.002 858.01 567.07 974.722C589.971 1131.32 715.838 1292.29 632.369 1426.76C544.045 1569.05 342.171 1640.82 180.332 1597.75C30.956 1558 11.8828 1359.77 -81.6723 1236.73C-152.317 1143.81 -291.58 1091.43 -293.362 974.722C-295.151 857.527 -162.849 796.251 -89.7969 704.593Z" stroke="#20DF56" stroke-width="2"/>
</g>
</svg>
