<svg width="166" height="18" viewBox="0 0 166 18" fill="none" xmlns="http://www.w3.org/2000/svg">
<g clip-path="url(#clip0_68_12381)">
<path d="M116.053 9.65167L120.375 4.97404H116.289L112.382 9.53325V0.0595703H108.829V17.8819H112.382V13.7372L113.921 12.0793L117.118 17.8819H120.671L116.053 9.65167Z" fill="url(#paint0_linear_68_12381)"/>
<path d="M37.4803 16.9938C37.4803 17.4675 37.4803 17.8819 37.4803 17.8819H41.0921V0.0595703H37.4803V16.9938Z" fill="url(#paint1_linear_68_12381)"/>
<path d="M55.0066 17.8812H58.5592H58.6184V4.91406H55.0066V17.8812Z" fill="url(#paint2_linear_68_12381)"/>
<path d="M58.6184 0.0595703H55.0066V3.55299H58.6184V0.0595703Z" fill="url(#paint3_linear_68_12381)"/>
<path d="M76.2039 7.28289C76.6776 6.51316 76.9737 5.625 76.9737 4.67763C76.9737 3.9671 76.7961 3.25658 76.5 2.60526C76.0855 1.65789 75.4342 0.947368 74.6053 0.532895C73.8947 0.177632 72.7105 0 71.1711 0H61.2829V17.8224H64.8947H70.9934C72.4737 17.8224 73.5987 17.7039 74.3684 17.4079C75.1382 17.1711 75.7303 16.6974 76.2039 15.9868C76.7368 15.2171 77.0329 14.2105 77.0329 13.0263C77.0329 11.0132 76.1447 9.65131 74.4276 8.82237C75.1382 8.64474 75.7303 8.05263 76.2039 7.28289ZM71.9408 14.2697C71.7039 14.4474 71.4671 14.5658 71.2303 14.625C70.9934 14.6842 70.579 14.7434 70.0461 14.7434H64.8355V10.5987H70.1053C70.9934 10.5987 71.5855 10.7171 72 10.9539C72.5329 11.3092 72.7697 11.8421 72.7697 12.5526C72.7697 13.2039 72.4737 13.7961 71.9408 14.2697ZM71.9408 6.92763C71.7039 7.10526 71.4671 7.22368 71.2303 7.28289C70.9934 7.3421 70.579 7.40132 70.0461 7.40132H64.8355V3.25658H70.1053C70.9934 3.25658 71.5855 3.375 72 3.61184C72.5329 3.9671 72.7697 4.5 72.7697 5.21053C72.7697 5.92105 72.4737 6.51316 71.9408 6.92763Z" fill="url(#paint4_linear_68_12381)"/>
<path d="M88.875 5.21012C88.4605 5.09169 88.046 4.97327 87.6316 4.97327C87.2171 4.91406 86.4473 4.91406 85.3816 4.91406H79.3421V7.69696H85.3816C86.4473 7.69696 87.1579 7.87459 87.5723 8.17064C87.9276 8.46669 88.1052 9.11801 88.1052 10.0062H83.7237C82.3026 10.0062 81.296 10.1246 80.7039 10.3614C79.9934 10.5983 79.4605 11.072 79.046 11.7233C78.6316 12.4338 78.3947 13.2035 78.3947 14.0917C78.3947 15.5127 78.9276 16.5785 79.9934 17.2891C80.4079 17.5259 80.8223 17.7035 81.3552 17.822C81.8881 17.8812 82.8355 17.9404 84.1381 17.9404H91.6579V10.5391C91.8355 7.75617 90.8881 5.97985 88.875 5.21012ZM88.1645 15.0983H84.0197C83.3092 15.0983 82.8355 15.0391 82.5395 14.8614C82.2434 14.6838 82.125 14.3877 82.125 13.9733C82.125 13.618 82.2434 13.322 82.4802 13.0851C82.7171 12.8483 83.0723 12.7299 83.4276 12.7299H84.0197H88.1645V15.0983Z" fill="url(#paint5_linear_68_12381)"/>
<path d="M103.5 5.09231C102.967 4.97389 102.138 4.85547 101.132 4.85547H94.2039V17.8818H97.7566V7.63836H100.895C101.546 7.63836 102.02 7.75678 102.316 8.05284C102.612 8.34889 102.73 8.82257 102.73 9.47389V17.8818H106.283V9.88836C106.283 8.05284 105.809 6.75021 104.921 5.92126C104.507 5.50678 104.033 5.26994 103.5 5.09231Z" fill="url(#paint6_linear_68_12381)"/>
<path d="M31.3816 4.91406V15.1575H28.2434C27.5921 15.1575 27.1184 15.0391 26.8224 14.743C26.5263 14.447 26.4079 13.9733 26.4079 13.322V4.91406H22.8553V12.9075C22.8553 14.743 23.329 16.0456 24.2171 16.8746C24.6316 17.2891 25.1645 17.5259 25.6974 17.7035C26.2303 17.822 27.0592 17.9404 28.0658 17.9404H34.9342V4.91406H31.3816Z" fill="url(#paint7_linear_68_12381)"/>
<path d="M10.0066 13.974L5.56579 0.0595703H0V17.8819H3.61184V4.50036L8.05263 17.8819H11.9605L16.6382 4.50036V17.8819H20.25V0.0595703H14.7434L10.0066 13.974Z" fill="url(#paint8_linear_68_12381)"/>
<path d="M52.579 4.79605H49.2632V0H45.7105V4.79605H43.4013V7.57895H45.7105V13.3224C45.6513 15.2763 45.9474 16.2237 46.7171 16.9342C47.5461 17.7039 48.5526 17.9408 50.7434 17.9408H52.4605V15.1579H51.5724C49.7961 15.1579 49.2632 14.625 49.2632 12.7303V7.57895H52.579V4.79605Z" fill="url(#paint9_linear_68_12381)"/>
<path d="M139.737 3.55299L134.289 0.414833C133.461 -0.0588507 132.454 -0.0588507 131.684 0.414833L126.237 3.55299C125.408 4.02668 124.934 4.91483 124.934 5.80299V12.1385C124.934 13.0859 125.408 13.9148 126.237 14.3885L131.684 17.5267C132.513 18.0004 133.52 18.0004 134.289 17.5267L139.737 14.3885C140.566 13.9148 141.039 13.0267 141.039 12.1385V5.80299C141.039 4.85562 140.566 4.02668 139.737 3.55299ZM130.145 11.6056C130.145 12.0793 129.789 12.4346 129.316 12.4346C128.842 12.4346 128.487 12.0793 128.487 11.6056V8.28983C128.487 7.81615 128.842 7.46089 129.316 7.46089C129.789 7.46089 130.145 7.81615 130.145 8.28983V11.6056ZM132.572 10.303C132.572 10.7767 132.217 11.1319 131.743 11.1319C131.27 11.1319 130.914 10.7767 130.914 10.303V5.56615C130.914 5.09246 131.27 4.7372 131.743 4.7372C132.217 4.7372 132.572 5.09246 132.572 5.56615V10.303ZM135.059 12.3754C135.059 12.849 134.704 13.2043 134.23 13.2043C133.757 13.2043 133.401 12.849 133.401 12.3754V7.57931C133.401 7.10562 133.757 6.75036 134.23 6.75036C134.704 6.75036 135.059 7.10562 135.059 7.57931V12.3754ZM137.487 10.303C137.487 10.7767 137.132 11.1319 136.658 11.1319C136.184 11.1319 135.829 10.7767 135.829 10.303V5.56615C135.829 5.09246 136.184 4.7372 136.658 4.7372C137.132 4.7372 137.487 5.09246 137.487 5.56615V10.303Z" fill="url(#paint10_linear_68_12381)"/>
<path d="M163.539 16.1641C162.888 16.8154 162.178 17.2299 161.289 17.5852C160.401 17.8812 159.513 18.0589 158.566 18.0589C157.618 18.0589 156.73 17.8812 155.842 17.5852C154.954 17.2891 154.184 16.8154 153.592 16.2233C152.941 15.572 152.467 14.8615 152.112 13.9733C151.816 13.0852 151.638 12.197 151.638 11.2496C151.638 10.3023 151.816 9.41411 152.112 8.52596C152.408 7.6378 152.941 6.86806 153.592 6.27596C154.243 5.68385 154.954 5.21017 155.842 4.91411C156.73 4.61806 157.618 4.44043 158.566 4.44043C159.513 4.44043 160.401 4.61806 161.289 4.91411C162.178 5.21017 162.947 5.68385 163.539 6.27596C164.191 6.92727 164.664 7.6378 165.02 8.52596C165.316 9.41411 165.493 10.3023 165.493 11.2496C165.493 12.197 165.316 13.0852 165.02 13.9733C164.664 14.8023 164.191 15.572 163.539 16.1641ZM157.322 14.9799C157.441 15.0391 157.559 15.0983 157.678 15.0983C157.796 15.1575 157.914 15.1575 157.974 15.1575C158.743 15.276 159.513 15.0983 160.224 14.6839C160.934 14.2694 161.408 13.6773 161.645 12.8483C161.704 12.5523 161.763 12.2562 161.822 11.9602C161.882 11.6641 161.882 11.3089 161.882 10.9536C161.822 10.2431 161.704 9.53254 161.349 8.88122C161.053 8.2299 160.52 7.75622 159.809 7.46017C159.632 7.40096 159.513 7.34175 159.336 7.28254C159.158 7.22332 159.039 7.22332 158.862 7.22332C158.092 7.16411 157.382 7.34175 156.73 7.75622C156.079 8.17069 155.605 8.7628 155.368 9.47332C155.309 9.76938 155.25 10.0654 155.191 10.3615C155.132 10.6575 155.132 10.9536 155.132 11.2496C155.132 12.0194 155.309 12.7891 155.664 13.4404C156.02 14.2102 156.612 14.6839 157.322 14.9799Z" fill="url(#paint11_linear_68_12381)"/>
<path d="M145.599 17.8812H149.151V4.91406H145.599V17.8812Z" fill="url(#paint12_linear_68_12381)"/>
<path d="M149.151 0.0595703H145.539V3.55299H149.151V0.0595703Z" fill="url(#paint13_linear_68_12381)"/>
</g>
<defs>
<linearGradient id="paint0_linear_68_12381" x1="106.004" y1="2.8337" x2="120.866" y2="17.6962" gradientUnits="userSpaceOnUse">
<stop stop-color="#9F762E"/>
<stop offset="0.2" stop-color="#FBC678"/>
<stop offset="0.5" stop-color="#EACA86"/>
<stop offset="0.8" stop-color="#BB9049"/>
<stop offset="1" stop-color="#9F762E"/>
</linearGradient>
<linearGradient id="paint1_linear_68_12381" x1="33.9214" y1="3.59971" x2="44.6434" y2="14.3217" gradientUnits="userSpaceOnUse">
<stop stop-color="#9F762E"/>
<stop offset="0.2" stop-color="#FBC678"/>
<stop offset="0.5" stop-color="#EACA86"/>
<stop offset="0.8" stop-color="#BB9049"/>
<stop offset="1" stop-color="#9F762E"/>
</linearGradient>
<linearGradient id="paint2_linear_68_12381" x1="52.6576" y1="7.24293" x2="60.9513" y2="15.5365" gradientUnits="userSpaceOnUse">
<stop stop-color="#9F762E"/>
<stop offset="0.2" stop-color="#FBC678"/>
<stop offset="0.5" stop-color="#EACA86"/>
<stop offset="0.8" stop-color="#BB9049"/>
<stop offset="1" stop-color="#9F762E"/>
</linearGradient>
<linearGradient id="paint3_linear_68_12381" x1="55.0257" y1="0.00746501" x2="58.5662" y2="3.5479" gradientUnits="userSpaceOnUse">
<stop stop-color="#9F762E"/>
<stop offset="0.2" stop-color="#FBC678"/>
<stop offset="0.5" stop-color="#EACA86"/>
<stop offset="0.8" stop-color="#BB9049"/>
<stop offset="1" stop-color="#9F762E"/>
</linearGradient>
<linearGradient id="paint4_linear_68_12381" x1="60.0595" y1="1.18901" x2="75.5721" y2="16.7016" gradientUnits="userSpaceOnUse">
<stop stop-color="#9F762E"/>
<stop offset="0.2" stop-color="#FBC678"/>
<stop offset="0.5" stop-color="#EACA86"/>
<stop offset="0.8" stop-color="#BB9049"/>
<stop offset="1" stop-color="#9F762E"/>
</linearGradient>
<linearGradient id="paint5_linear_68_12381" x1="78.8423" y1="5.41013" x2="91.5204" y2="18.0882" gradientUnits="userSpaceOnUse">
<stop stop-color="#9F762E"/>
<stop offset="0.2" stop-color="#FBC678"/>
<stop offset="0.5" stop-color="#EACA86"/>
<stop offset="0.8" stop-color="#BB9049"/>
<stop offset="1" stop-color="#9F762E"/>
</linearGradient>
<linearGradient id="paint6_linear_68_12381" x1="93.3849" y1="5.71071" x2="105.947" y2="18.2724" gradientUnits="userSpaceOnUse">
<stop stop-color="#9F762E"/>
<stop offset="0.2" stop-color="#FBC678"/>
<stop offset="0.5" stop-color="#EACA86"/>
<stop offset="0.8" stop-color="#BB9049"/>
<stop offset="1" stop-color="#9F762E"/>
</linearGradient>
<linearGradient id="paint7_linear_68_12381" x1="23.2219" y1="4.51119" x2="35.7822" y2="17.0715" gradientUnits="userSpaceOnUse">
<stop stop-color="#9F762E"/>
<stop offset="0.2" stop-color="#FBC678"/>
<stop offset="0.5" stop-color="#EACA86"/>
<stop offset="0.8" stop-color="#BB9049"/>
<stop offset="1" stop-color="#9F762E"/>
</linearGradient>
<linearGradient id="paint8_linear_68_12381" x1="0.607086" y1="-0.57268" x2="19.6752" y2="18.4955" gradientUnits="userSpaceOnUse">
<stop stop-color="#9F762E"/>
<stop offset="0.2" stop-color="#FBC678"/>
<stop offset="0.5" stop-color="#EACA86"/>
<stop offset="0.8" stop-color="#BB9049"/>
<stop offset="1" stop-color="#9F762E"/>
</linearGradient>
<linearGradient id="paint9_linear_68_12381" x1="42.6794" y1="3.11086" x2="54.9816" y2="15.413" gradientUnits="userSpaceOnUse">
<stop stop-color="#9F762E"/>
<stop offset="0.2" stop-color="#FBC678"/>
<stop offset="0.5" stop-color="#EACA86"/>
<stop offset="0.8" stop-color="#BB9049"/>
<stop offset="1" stop-color="#9F762E"/>
</linearGradient>
<linearGradient id="paint10_linear_68_12381" x1="126.819" y1="2.80202" x2="139.145" y2="15.1278" gradientUnits="userSpaceOnUse">
<stop stop-color="#9F762F"/>
<stop offset="0.2" stop-color="#FCC678"/>
<stop offset="0.5" stop-color="#EACA87"/>
<stop offset="0.8" stop-color="#BA904A"/>
<stop offset="1" stop-color="#9F762F"/>
</linearGradient>
<linearGradient id="paint11_linear_68_12381" x1="153.524" y1="6.24327" x2="163.512" y2="16.2308" gradientUnits="userSpaceOnUse">
<stop stop-color="#9F762F"/>
<stop offset="0.2" stop-color="#FCC678"/>
<stop offset="0.5" stop-color="#EACA87"/>
<stop offset="0.8" stop-color="#BA904A"/>
<stop offset="1" stop-color="#9F762F"/>
</linearGradient>
<linearGradient id="paint12_linear_68_12381" x1="143.227" y1="7.24293" x2="151.52" y2="15.5365" gradientUnits="userSpaceOnUse">
<stop stop-color="#9F762E"/>
<stop offset="0.2" stop-color="#FBC678"/>
<stop offset="0.5" stop-color="#EACA86"/>
<stop offset="0.8" stop-color="#BB9049"/>
<stop offset="1" stop-color="#9F762E"/>
</linearGradient>
<linearGradient id="paint13_linear_68_12381" x1="145.595" y1="0.00746501" x2="149.135" y2="3.54789" gradientUnits="userSpaceOnUse">
<stop stop-color="#9F762E"/>
<stop offset="0.2" stop-color="#FBC678"/>
<stop offset="0.5" stop-color="#EACA86"/>
<stop offset="0.8" stop-color="#BB9049"/>
<stop offset="1" stop-color="#9F762E"/>
</linearGradient>
<clipPath id="clip0_68_12381">
<rect width="165.493" height="18" fill="white"/>
</clipPath>
</defs>
</svg>
